<?xml version="1.0" encoding="UTF-8" standalone="no"?>
<!DOCTYPE svg PUBLIC "-//W3C//DTD SVG 1.1//EN"
 "http://www.w3.org/Graphics/SVG/1.1/DTD/svg11.dtd">
<!-- Generated by graphviz version 7.0.5 (20221223.1930)
 -->
<!-- Title: snakemake_dag Pages: 1 -->
<svg width="224pt" height="332pt"
 viewBox="0.00 0.00 224.00 332.00" xmlns="http://www.w3.org/2000/svg" xmlns:xlink="http://www.w3.org/1999/xlink">
<g id="graph0" class="graph" transform="scale(1 1) rotate(0) translate(4 328)">
<title>snakemake_dag</title>
<polygon fill="white" stroke="none" points="-4,4 -4,-328 220,-328 220,4 -4,4"/>
<!-- 0 -->
<g id="node1" class="node">
<title>0</title>
<polygon fill="#fcf3cf" stroke="black" stroke-width="2" points="169,-36 92,-36 92,0 169,0 169,-36"/>
<text text-anchor="middle" x="130.5" y="-15.5" font-family="sans" font-size="10.00">pipeline</text>
</g>
<!-- 1 -->
<g id="node2" class="node">
<title>1</title>
<polygon fill="#fcf3cf" stroke="black" stroke-width="2" points="129,-108 30,-108 30,-72 129,-72 129,-108"/>
<text text-anchor="middle" x="79.5" y="-87.5" font-family="sans" font-size="10.00">compression</text>
</g>
<!-- 1&#45;&gt;0 -->
<g id="edge1" class="edge">
<title>1&#45;&gt;0</title>
<path fill="none" stroke="black" stroke-width="2" d="M92.37,-71.34C97.7,-64.01 104.03,-55.34 109.97,-47.18"/>
<polygon fill="black" stroke="black" stroke-width="2" points="112.61,-49.49 115.67,-39.35 106.96,-45.37 112.61,-49.49"/>
</g>
<!-- 2 -->
<g id="node3" class="node">
<title>2</title>
<polygon fill="#fcf3cf" stroke="black" stroke-width="2" points="159,-180 0,-180 0,-144 159,-144 159,-180"/>
<text text-anchor="middle" x="79.5" y="-159.5" font-family="sans" font-size="10.00">depletion_selection</text>
</g>
<!-- 2&#45;&gt;1 -->
<g id="edge3" class="edge">
<title>2&#45;&gt;1</title>
<path fill="none" stroke="black" stroke-width="2" d="M79.5,-143.34C79.5,-136.75 79.5,-129.08 79.5,-121.67"/>
<polygon fill="black" stroke="black" stroke-width="2" points="83,-121.93 79.5,-111.93 76,-121.93 83,-121.93"/>
</g>
<!-- 3 -->
<g id="node4" class="node">
<title>3</title>
<polygon fill="#fcf3cf" stroke="black" stroke-width="2" points="106.5,-252 52.5,-252 52.5,-216 106.5,-216 106.5,-252"/>
<text text-anchor="middle" x="79.5" y="-231.5" font-family="sans" font-size="10.00">bwa</text>
</g>
<!-- 3&#45;&gt;2 -->
<g id="edge4" class="edge">
<title>3&#45;&gt;2</title>
<path fill="none" stroke="black" stroke-width="2" d="M79.5,-215.34C79.5,-208.75 79.5,-201.08 79.5,-193.67"/>
<polygon fill="black" stroke="black" stroke-width="2" points="83,-193.93 79.5,-183.93 76,-193.93 83,-193.93"/>
</g>
<!-- 4 -->
<g id="node5" class="node">
<title>4</title>
<polygon fill="#fcf3cf" stroke="black" stroke-width="2" points="121.5,-324 37.5,-324 37.5,-288 121.5,-288 121.5,-324"/>
<text text-anchor="middle" x="79.5" y="-303.5" font-family="sans" font-size="10.00">bwa_index</text>
</g>
<!-- 4&#45;&gt;3 -->
<g id="edge5" class="edge">
<title>4&#45;&gt;3</title>
<path fill="none" stroke="black" stroke-width="2" d="M79.5,-287.34C79.5,-280.75 79.5,-273.08 79.5,-265.67"/>
<polygon fill="black" stroke="black" stroke-width="2" points="83,-265.93 79.5,-255.93 76,-265.93 83,-265.93"/>
</g>
<!-- 5 -->
<g id="node6" class="node">
<title>5</title>
<polygon fill="#fcf3cf" stroke="black" stroke-width="2" points="216,-108 147,-108 147,-72 216,-72 216,-108"/>
<text text-anchor="middle" x="181.5" y="-87.5" font-family="sans" font-size="10.00">dot2svg</text>
</g>
<!-- 5&#45;&gt;0 -->
<g id="edge2" class="edge">
<title>5&#45;&gt;0</title>
<path fill="none" stroke="black" stroke-width="2" d="M168.63,-71.34C163.3,-64.01 156.97,-55.34 151.03,-47.18"/>
<polygon fill="black" stroke="black" stroke-width="2" points="154.04,-45.37 145.33,-39.35 148.39,-49.49 154.04,-45.37"/>
</g>
</g>
</svg>
